<?xml version="1.0" encoding="UTF-8"?><svg id="Capa_1" xmlns="http://www.w3.org/2000/svg" viewBox="0 0 24 24"><defs><style>.cls-1{fill:#eb79a2;stroke-width:0px;}</style></defs><path class="cls-1" d="M10.99.87c-.01,1.44,0,2.87,0,4.31,0,.17-.05.35.06.51,0-1.73,0-3.45,0-5.18h-.37s0,.04,0,.07c.25-.05.31.06.31.3Z"/><path class="cls-1" d="M12.2,7.53c-.24-.05-.36-.13-.37-.39-.02-.34-.13-.62-.45-.83-.21-.14-.3-.38-.34-.64,0,0,0,0,0,0h0c-.22-.09-.15-.29-.15-.45,0-1.37,0-2.74,0-4.12,0-.21,0-.41-.2-.55.02,1.47-.05,2.94.03,4.4.03.56-.07,1.1-.52,1.49-.23.2-.32.42-.31.69,0,.21-.08.28-.28.32-.36.08-.72.18-1.07.3-4.58,1.51-6.36,5.82-5.4,9.7,1.07,4.35,6.21,7.29,10.82,5.3,4.22-1.82,6.11-6.78,4.06-10.87-1.21-2.41-3.19-3.83-5.82-4.37ZM17.75,13.72c.02.11-.02.15-.13.14-.37-.05-.73-.09-1.1-.14-.29-.05-.47-.23-.54-.52-.12-.49-.14-.99-.23-1.49-.03-.15.06-.13.16-.12.99.18,1.83,1.15,1.84,2.13ZM14.94,9.7c.08-.08.15-.21.29-.05.42.49.86.97,1.29,1.45.03.03.05.06.08.11-.09.08-.17.16-.26.22-.09.07-.13-.02-.18-.07-.43-.45-.86-.91-1.3-1.36-.17-.17-.01-.23.07-.31ZM12.83,13.94c0-.19.05-.25.24-.23.8.09,1.59.17,2.39.23.19.02.21.1.21.25,0,.75,0,1.5,0,2.25,0,.19-.07.25-.25.26-.81.07-1.62.15-2.42.23-.18.02-.18-.08-.17-.2,0-.46,0-.92,0-1.39,0-.47,0-.95,0-1.42ZM12.77,12.93c-.05-.65-.14-1.3-.22-1.95-.02-.15-.03-.27.18-.24.54.07,1.08.1,1.61.24.53.14.84.47.97,1,.09.41.14.83.2,1.3.05.14.02.24-.23.22-.7-.07-1.41-.13-2.12-.18-.26-.02-.37-.12-.39-.39ZM12.89,8.57c.91.22,1.49.77,1.76,1.67.07.22,0,.27-.2.26-.13,0-.27,0-.4,0,0,0,0,0,0,0-.1,0-.21,0-.31,0-.94-.05-1.4-.5-1.46-1.44-.04-.65-.04-.64.61-.49ZM10.38,6.96c.2-.41.46-.5.77-.3.17.11.33.22.53.36-.23.13-.43.26-.64.36-.12.06-.27.1-.37,0-.12-.12-.41-.17-.29-.41ZM9.51,9.91c.04-.34.06-.68.12-1.01.07-.41.28-.58.69-.63.13-.01.27-.01.4-.02.91,0,1.04.11,1.17,1q.13.86-.72.86c-.14,0-.29,0-.43,0-.34,0-.68,0-1.02,0-.16,0-.22-.05-.21-.21ZM10.12,10.55c.44-.03.88-.03,1.32,0,.42.03.65.24.72.66.11.62.13,1.24.2,1.86.02.18-.06.19-.19.19-.47,0-.95,0-1.42,0-.47,0-.95,0-1.42,0-.16,0-.22-.04-.2-.21.06-.58.11-1.16.17-1.74.05-.5.3-.72.8-.75ZM5.07,11.07c.56-.52,1.11-1.05,1.71-1.62.03.98-.63,1.77-1.51,1.89-.11.01-.18-.02-.24-.09-.07-.08-.02-.13.04-.18ZM3.7,14.77c.02-.23.2-.35.4-.42.42-.16.86-.17,1.3-.23.14-.02.17.06.17.18,0,.32,0,.63,0,.95,0,.31,0,.61,0,.92,0,.15-.04.23-.2.24-.1,0-.2.04-.3.04-1.35.06-1.47-.56-1.37-1.68ZM5.14,19.67c.94-.02,1.58.62,1.58,1.63-.53-.55-1.06-1.1-1.58-1.63ZM8.77,20.1c-.49-.07-.98-.09-1.46-.24-.4-.13-.67-.38-.82-.77-.22-.58-.28-1.2-.38-1.8-.02-.12,0-.18.16-.17.75.08,1.49.15,2.24.21.12.01.18.05.19.18.07.79.15,1.57.23,2.36.02.13.04.26-.16.23ZM8.95,10.88c-.08.73-.16,1.47-.23,2.2-.01.14-.07.19-.21.2-.67.07-1.35.15-2.02.22-.14.02-.21-.02-.22-.17,0-.18-.03-.37-.05-.55,0-1.1.4-1.62,1.47-1.9.35-.09.71-.13,1.06-.2.16-.03.23.02.21.19ZM8.37,10.42c-.43.12-.86.17-1.3.23-.16.02-.18-.04-.15-.17.29-1.06.89-1.77,2.08-1.95.17-.03.27,0,.27.21,0,.14.03.28.05.43,0,.71-.27,1.06-.95,1.26ZM11.99,20.94c-.13.29-.07.61-.13.91-.08.39-.25.58-.63.65-.19.03-.39.05-.58.06-.6.03-.8-.12-.94-.7-.06-.27-.09-.54-.15-.82-.04-.23,0-.34.27-.32.32.02.64,0,.95,0,.35,0,.7,0,1.05,0,.17,0,.23.03.15.21ZM9.35,16.9c-.18,0-.23-.06-.23-.23,0-.91,0-1.83,0-2.74,0-.17.05-.23.23-.23.45,0,.9,0,1.36,0,.46,0,.92,0,1.39,0,.19,0,.25.06.25.25,0,.9,0,1.8,0,2.71,0,.19-.06.24-.25.24-.91,0-1.83,0-2.74,0ZM12.45,22.33c-.14,0-.18-.04-.19-.17-.08-1.07.15-1.49,1.06-1.7.45-.1.91-.16,1.39-.21-.16,1.21-1.09,2.05-2.26,2.08ZM14.33,19.86c-.54.13-1.09.19-1.64.28-.13.02-.17-.02-.15-.14.09-.81.17-1.61.25-2.42.02-.16.1-.22.26-.24.77-.06,1.54-.13,2.3-.22.19-.02.22.03.19.18-.07.53-.11,1.05-.23,1.56-.13.53-.44.86-.98.99ZM15.15,21.2c-.16-.9.52-1.64,1.61-1.7-.56.6-1.08,1.14-1.61,1.7ZM17.73,16.94c-.04,1.41-.58,1.86-1.82,2.28-.14.05-.19,0-.18-.14,0-.1,0-.2,0-.25.03-.4.05-.73.13-1.06.1-.4.35-.66.74-.8.3-.1.61-.15.93-.22.18-.04.21.02.2.18ZM17.91,15.9c-.07.33-.29.5-.62.56-.01,0-.02,0-.03,0-.36,0-.78.12-1.05-.1-.19-.16-.04-.57-.06-.86,0-.09,0-.18,0-.28,0-.32,0-.64,0-.96,0-.16.04-.21.22-.17.44.1.89.17,1.33.26.1.02.2.02.21.17.05.46.09.92,0,1.38Z"/><path class="cls-1" d="M3.03,20.23c-.11.93-.41,1.64-1.46,1.77.82.19,1.3.7,1.49,1.51.1-1.1.96-1.27,1.81-1.51-1.14-.05-1.63-.75-1.84-1.76Z"/><path class="cls-1" d="M21.12,18.76c-.31-.33-.35-.8-.58-1.18-.11.92-.46,1.58-1.48,1.69.84.16,1.32.67,1.53,1.48.07-.44.24-.8.62-1.04.35-.22.76-.29,1.22-.42-.5-.16-.97-.18-1.3-.53Z"/><path class="cls-1" d="M17.88,9.95c.03-.53.2-.89.59-1.14.36-.23.77-.29,1.23-.42-.47-.16-.93-.17-1.27-.48-.34-.31-.36-.79-.61-1.17-.13.88-.48,1.53-1.46,1.63.38.11.73.25,1,.53.27.28.39.63.52,1.06Z"/><path class="cls-1" d="M4.91,5.14c.19-1.09.98-1.3,1.81-1.51-1.16-.07-1.64-.77-1.82-1.81-.13.91-.38,1.69-1.48,1.81.78.18,1.27.65,1.48,1.51Z"/></svg>